<svg xmlns="http://www.w3.org/2000/svg" width="400" height="300" viewBox="0 0 400 300"><defs><linearGradient id="g" x1="0" x2="1" y1="0" y2="1"><stop offset="0" stop-color="#f59e0b"/><stop offset="1" stop-color="#92400e"/></linearGradient></defs><rect width="400" height="300" fill="url(#g)"/><circle cx="55" cy="55" r="35" fill="#fff" opacity=".12"/><circle cx="350" cy="245" r="70" fill="#fff" opacity=".08"/><g><rect x="85" y="82" width="230" height="42" rx="22" fill="#e9a23b"/><rect x="92" y="125" width="216" height="16" rx="8" fill="#65a30d"/><rect x="88" y="142" width="224" height="35" rx="12" fill="#8b4513"/><rect x="92" y="178" width="216" height="15" rx="7" fill="#facc15"/><rect x="88" y="194" width="224" height="42" rx="16" fill="#d99132"/><g fill="#fff" opacity=".7"><circle cx="130" cy="102" r="3"/><circle cx="180" cy="95" r="3"/><circle cx="235" cy="105" r="3"/><circle cx="275" cy="98" r="3"/></g></g><rect x="18" y="235" width="364" height="48" rx="12" fill="#fff" opacity=".92"/><text x="200" y="257" text-anchor="middle" font-family="Arial,sans-serif" font-size="17" font-weight="700" fill="#1f2937">Spicy Mexican Burger</text><text x="200" y="275" text-anchor="middle" font-family="Arial,sans-serif" font-size="10" fill="#6b7280">VEG BURGERS</text></svg>